<svg width="88" height="27" viewBox="0 0 88 27" fill="none" xmlns="http://www.w3.org/2000/svg">
<path d="M6.64773 27H0.715909L9.75426 0.818181H16.8878L25.9134 27H19.9815L13.4233 6.80114H13.2188L6.64773 27ZM6.27699 16.7088H20.2884V21.0298H6.27699V16.7088ZM33.5774 27H27.6456L36.6839 0.818181H43.8175L52.843 27H46.9112L40.353 6.80114H40.1484L33.5774 27ZM33.2067 16.7088H47.218V21.0298H33.2067V16.7088ZM65.2756 27H55.9943V0.818181H65.3523C67.9858 0.818181 70.2528 1.34233 72.1534 2.39062C74.054 3.4304 75.5156 4.92614 76.5384 6.87784C77.5696 8.82955 78.0852 11.1648 78.0852 13.8835C78.0852 16.6108 77.5696 18.9545 76.5384 20.9148C75.5156 22.875 74.0455 24.3793 72.1278 25.4276C70.2188 26.4759 67.9347 27 65.2756 27ZM61.5298 22.2571H65.0455C66.6818 22.2571 68.0582 21.9673 69.1747 21.3878C70.2997 20.7997 71.1435 19.892 71.706 18.6648C72.277 17.429 72.5625 15.8352 72.5625 13.8835C72.5625 11.9489 72.277 10.3679 71.706 9.14062C71.1435 7.91335 70.304 7.00994 69.1875 6.4304C68.071 5.85085 66.6946 5.56108 65.0582 5.56108H61.5298V22.2571ZM87.7212 0.818181V27H82.1857V0.818181H87.7212Z" fill="url(#paint0_linear_114_1264)"/>
<defs>
<linearGradient id="paint0_linear_114_1264" x1="44" y1="27" x2="44" y2="-15" gradientUnits="userSpaceOnUse">
<stop stop-color="#005C9F"/>
<stop offset="1" stop-color="#5786FF" stop-opacity="0"/>
</linearGradient>
</defs>
</svg>
