<svg width="352" height="115" viewBox="0 0 352 115" fill="none" xmlns="http://www.w3.org/2000/svg">
<path d="M16.9 28.75V6.99999H63.85V28.75H16.9ZM16.9 69.85V49.45H62.35V69.85H16.9ZM0.1 6.99999H24.4V112H0.1V6.99999ZM88.9633 91.75L90.7633 72.4H142.813L144.463 91.75H88.9633ZM116.413 45.55L101.713 79.45L102.913 85L89.8633 112H61.2133L116.413 0.399997L171.763 112H142.963L130.363 86.05L131.263 79.6L116.413 45.55ZM199.825 59.5C199.825 65.9 201.275 71.45 204.175 76.15C207.075 80.75 210.875 84.25 215.575 86.65C220.375 89.05 225.625 90.25 231.325 90.25C236.325 90.25 240.725 89.6 244.525 88.3C248.325 87 251.725 85.3 254.725 83.2C257.725 81.1 260.375 78.85 262.675 76.45V103.75C258.475 107.05 253.875 109.65 248.875 111.55C243.875 113.45 237.525 114.4 229.825 114.4C221.425 114.4 213.675 113.1 206.575 110.5C199.475 107.9 193.375 104.15 188.275 99.25C183.175 94.35 179.225 88.55 176.425 81.85C173.625 75.15 172.225 67.7 172.225 59.5C172.225 51.3 173.625 43.85 176.425 37.15C179.225 30.45 183.175 24.65 188.275 19.75C193.375 14.85 199.475 11.1 206.575 8.49999C213.675 5.9 221.425 4.6 229.825 4.6C237.525 4.6 243.875 5.55 248.875 7.45C253.875 9.35 258.475 11.95 262.675 15.25V42.55C260.375 40.15 257.725 37.9 254.725 35.8C251.725 33.6 248.325 31.9 244.525 30.7C240.725 29.4 236.325 28.75 231.325 28.75C225.625 28.75 220.375 29.95 215.575 32.35C210.875 34.75 207.075 38.25 204.175 42.85C201.275 47.45 199.825 53 199.825 59.5ZM268.36 29.65V6.99999H351.46V29.65H322.51V112H297.16V29.65H268.36Z" fill="white" fill-opacity="0.15"/>
</svg>
