<svg width="396" height="130.412" viewBox="0 0 399 131.4" class="css-1j8o68f"><rect xmlns="http://www.w3.org/2000/svg" width="110" height="146" rx="10" ry="10" transform="scale(.9)" fill="#fff"/><path d="M79.897 60.637c.874-.463.397 26.238-.459 25.741l-30.55-8.743a409.114 409.114 0 0 0-4.48 38.341c-.274 3.086-13.221 4.535-14.48 1.422a434.322 434.322 0 0 1-13.196-78.729c-1.766-2.715-2.581-12.806-.495-13.828 10.886-3.32 21.999-5.89 33.328-7.915 11.352-1.987 22.867-3.46 35.06-3.924 2.13-.473-5.467 43.386-6.8 42.367-7.145-3.024-14.87-5.646-22.79-7.943a401.706 401.706 0 0 0-4.425 20.472z" fill="#35b0ab"/><path d="M138.53 68.962a4.1 4.1 0 0 1 0 8.2H127.2v11.021a4.1 4.1 0 0 1-8.2 0V59.532C119 48.762 127.76 40 138.53 40a4.1 4.1 0 0 1 0 8.201 11.342 11.342 0 0 0-11.328 11.329v9.43h11.326zm26.98-15.122c10.598 0 19.221 8.623 19.221 19.222s-8.623 19.222-19.221 19.222-19.222-8.623-19.222-19.222S154.91 53.84 165.51 53.84zm0 30.243c6.076 0 11.02-4.945 11.02-11.02s-4.944-11.022-11.02-11.022-11.021 4.945-11.021 11.021 4.944 11.02 11.02 11.02zm57.198-30.243a4.1 4.1 0 0 1 4.1 4.101v15.121c0 10.599-8.623 19.222-19.221 19.222s-19.222-8.623-19.222-19.222V57.941a4.1 4.1 0 0 1 8.201 0v15.121c0 6.076 4.945 11.02 11.02 11.02s11.021-4.944 11.021-11.02V57.941a4.1 4.1 0 0 1 4.1-4.1zm26.956 0a4.1 4.1 0 0 1 0 8.201 11.034 11.034 0 0 0-11.02 11.021v15.121a4.1 4.1 0 0 1-8.202 0V57.941a4.1 4.1 0 0 1 8.156-.58 19.108 19.108 0 0 1 11.066-3.52zm27.223 30.243a4.1 4.1 0 0 1 0 8.2c-10.769 0-19.53-8.76-19.53-19.529V44.101a4.1 4.1 0 0 1 8.2 0v9.75h11.33a4.1 4.1 0 0 1 0 8.202h-11.33v10.701a11.342 11.342 0 0 0 11.33 11.329zm23.245-30.243c10.599 0 19.222 8.623 19.222 19.222a4.1 4.1 0 0 1-4.1 4.1h-25.35c1.63 4.053 5.601 6.92 10.228 6.92a10.946 10.946 0 0 0 7.794-3.228 4.1 4.1 0 0 1 5.798 5.8 19.098 19.098 0 0 1-13.592 5.63c-10.598 0-19.221-8.623-19.221-19.222s8.623-19.222 19.221-19.222zm-10.229 15.122h20.46c-1.63-4.052-5.602-6.92-10.23-6.92s-8.598 2.868-10.23 6.92zm60.1 11.894a4.1 4.1 0 0 1 5.8 5.798 19.095 19.095 0 0 1-13.594 5.63c-10.598 0-19.22-8.623-19.22-19.222s8.622-19.222 19.222-19.222c5.135 0 9.96 1.998 13.59 5.63a4.1 4.1 0 1 1-5.798 5.8 10.946 10.946 0 0 0-7.792-3.229c-6.078 0-11.02 4.945-11.02 11.021s4.942 11.02 11.02 11.02a10.946 10.946 0 0 0 7.792-3.228zm29.826-26.913c10.57 0 19.172 8.6 19.172 19.171v15.07a4.1 4.1 0 0 1-8.202 0v-15.07c0-6.05-4.92-10.968-10.968-10.968s-10.97 4.92-10.97 10.968v15.07a4.1 4.1 0 0 1-8.201 0v-44.08a4.1 4.1 0 0 1 8.2 0v13.303a19.06 19.06 0 0 1 10.971-3.462z" fill="#fff"/></svg>