<?xml version="1.0" standalone="no"?>
<svg xmlns:xlink="http://www.w3.org/1999/xlink" id="wave" style="transform:rotate(0deg); transition: 0.3s" viewBox="0 0 1440 490" version="1.1" xmlns="http://www.w3.org/2000/svg"><defs><linearGradient id="sw-gradient-0" x1="0" x2="0" y1="1" y2="0"><stop stop-color="rgba(0, 4.26, 77.781, 1)" offset="0%"/><stop stop-color="rgba(67.704, 47.307, 80.058, 1)" offset="100%"/></linearGradient></defs><path style="transform:translate(0, 0px); opacity:1" fill="url(#sw-gradient-0)" d="M0,441L48,367.5C96,294,192,147,288,147C384,147,480,294,576,351.2C672,408,768,376,864,326.7C960,278,1056,212,1152,163.3C1248,114,1344,82,1440,81.7C1536,82,1632,114,1728,122.5C1824,131,1920,114,2016,114.3C2112,114,2208,131,2304,179.7C2400,229,2496,310,2592,359.3C2688,408,2784,425,2880,432.8C2976,441,3072,441,3168,408.3C3264,376,3360,310,3456,285.8C3552,261,3648,278,3744,236.8C3840,196,3936,98,4032,106.2C4128,114,4224,229,4320,277.7C4416,327,4512,310,4608,294C4704,278,4800,261,4896,212.3C4992,163,5088,82,5184,65.3C5280,49,5376,98,5472,114.3C5568,131,5664,114,5760,114.3C5856,114,5952,131,6048,179.7C6144,229,6240,310,6336,343C6432,376,6528,359,6624,310.3C6720,261,6816,180,6864,138.8L6912,98L6912,490L6864,490C6816,490,6720,490,6624,490C6528,490,6432,490,6336,490C6240,490,6144,490,6048,490C5952,490,5856,490,5760,490C5664,490,5568,490,5472,490C5376,490,5280,490,5184,490C5088,490,4992,490,4896,490C4800,490,4704,490,4608,490C4512,490,4416,490,4320,490C4224,490,4128,490,4032,490C3936,490,3840,490,3744,490C3648,490,3552,490,3456,490C3360,490,3264,490,3168,490C3072,490,2976,490,2880,490C2784,490,2688,490,2592,490C2496,490,2400,490,2304,490C2208,490,2112,490,2016,490C1920,490,1824,490,1728,490C1632,490,1536,490,1440,490C1344,490,1248,490,1152,490C1056,490,960,490,864,490C768,490,672,490,576,490C480,490,384,490,288,490C192,490,96,490,48,490L0,490Z"/></svg>